<svg width="90" height="16" viewBox="0 0 90 16" fill="none" xmlns="http://www.w3.org/2000/svg">
<path d="M0.894775 0.503012C1.16004 1.73289 2.04425 3.07458 3.19372 3.41001H6.81899L6.99583 3.52181V15.038H9.20635V3.52181L9.3832 3.41001H13.0085C14.2464 2.96278 15.0421 1.73289 15.3074 0.503012H0.894775ZM69.6864 15.038C70.8358 14.4789 71.4548 13.3609 71.6316 12.131H61.64V0.391205H59.4295V14.9262H69.6864V15.038ZM42.7179 3.41001H50.6758C51.8253 2.96278 52.8864 1.8447 53.0632 0.503012H40.5074V9.11218H50.7643V12.131H42.7179C41.48 12.5782 40.419 13.6963 39.8885 15.038H53.0632V6.317H42.7179V3.41001ZM76.4064 6.317V15.038H78.7053V9.22399H86.7516V15.038H89.0506V6.317H76.4064ZM23.1769 3.41001H31.7537C32.9032 3.07458 33.8758 1.73289 34.0527 0.503012H20.7895C21.1432 1.8447 22.0274 3.07458 23.1769 3.41001ZM23.1769 9.22399H31.7537C32.9032 8.88857 33.8758 7.54688 34.0527 6.317H20.7895C21.1432 7.54688 22.0274 8.88857 23.1769 9.22399ZM23.1769 15.038H31.7537C32.9032 14.7026 33.8758 13.3609 34.0527 12.131H20.7895C21.1432 13.4727 22.0274 14.8144 23.1769 15.038ZM78.44 3.41001H87.0169C88.1664 3.07458 89.139 1.73289 89.3158 0.503012H76.0527C76.3179 1.8447 77.2021 3.18639 78.44 3.41001Z" fill="white"/>
</svg>
